<svg width="48" height="48" viewBox="0 0 48 48" fill="none" xmlns="http://www.w3.org/2000/svg">
<path d="M21.8438 13.14L33.2916 6.61032L32.2763 4.82907C32.1755 4.65214 32.0408 4.49682 31.8799 4.37198C31.719 4.24714 31.5351 4.15523 31.3387 4.10151C31.1423 4.04779 30.9372 4.03331 30.7352 4.0589C30.5331 4.08448 30.3381 4.14964 30.1613 4.25063L27.4688 5.78532C27.185 5.32633 26.7341 4.9954 26.2112 4.86222C25.6882 4.72904 25.134 4.80401 24.6652 5.07133C24.1964 5.33866 23.8496 5.77748 23.6979 6.29537C23.5462 6.81327 23.6015 7.36982 23.8519 7.84782L21.4013 9.24469C21.0441 9.44867 20.7825 9.78614 20.6741 10.1829C20.5656 10.5797 20.6191 11.0033 20.8229 11.3606L21.8438 13.14Z" fill="#2D5151"/>
<path d="M44.9403 16.6772L44.6093 16.3959L46.0803 13.9041C46.4781 13.2285 46.6906 12.4599 46.6966 11.6759C46.7025 10.892 46.5016 10.1203 46.114 9.43875L43.9578 5.66157C43.6684 5.15406 43.2818 4.70853 42.8202 4.35043C42.3586 3.99232 41.831 3.72865 41.2675 3.57447C40.7039 3.4203 40.1156 3.37863 39.5359 3.45186C38.9563 3.52509 38.3968 3.71177 37.8893 4.00125L33.2956 6.62157L34.1093 8.04938L38.7031 5.42438C39.0231 5.24137 39.376 5.12321 39.7417 5.07665C40.1074 5.03009 40.4787 5.05604 40.8343 5.15303C41.19 5.25002 41.523 5.41614 41.8145 5.6419C42.1059 5.86766 42.35 6.14863 42.5328 6.46875L44.689 10.2459C44.9327 10.6753 45.0591 11.1613 45.0555 11.655C45.0519 12.1487 44.9184 12.6327 44.6684 13.0584L43.3456 15.2991L34.58 7.77938L22.205 14.8388L22.955 19.0772C22.968 19.1509 22.9607 19.2268 22.9338 19.2966C22.9068 19.3665 22.8613 19.4276 22.8022 19.4735C22.743 19.5193 22.6724 19.5481 22.598 19.5568C22.5237 19.5654 22.4484 19.5536 22.3803 19.5225L17.9478 17.5031C17.8291 17.4487 17.6992 17.4233 17.5688 17.4291C17.4384 17.4348 17.3112 17.4714 17.1978 17.5359L14.5146 19.0547L15.4015 20.6091L16.339 20.0709C16.5107 19.9719 16.7125 19.9384 16.907 19.9764C17.1016 20.0145 17.2757 20.1217 17.3975 20.2781L25.7534 31.0153C26.3885 31.8709 27.226 32.5555 28.1909 33.0075L34.2125 35.8247C34.4508 35.9365 34.7125 35.9894 34.9755 35.9788C35.2386 35.9682 35.4952 35.8944 35.7237 35.7638L45.694 30.0769C45.9226 29.9468 46.1165 29.7637 46.2595 29.5429C46.4024 29.3221 46.4901 29.0702 46.5153 28.8084L47.1575 22.1897C47.2572 21.1604 47.1079 20.1222 46.722 19.1627C46.3361 18.2033 45.725 17.3508 44.9403 16.6772ZM44.7818 27.0291L43.1468 26.8697L43.3887 24.375L45.0237 24.5334L44.7818 27.0291ZM45.2131 22.5844L43.5771 22.4259C43.6321 21.8569 43.5496 21.2831 43.3367 20.7526C43.1238 20.2221 42.7867 19.7504 42.3537 19.3772L41.2765 18.4828L42.3265 17.2191L43.4187 18.1256C44.0532 18.6706 44.5474 19.3602 44.8597 20.1362C45.172 20.9121 45.2932 21.7518 45.2131 22.5844Z" fill="#2D5151"/>
<path d="M14.7639 30.6216H4.83299C4.69962 30.6215 4.56823 30.6539 4.45018 30.7159C4.33214 30.778 4.23099 30.8679 4.15548 30.9779C4.07997 31.0878 4.03237 31.2145 4.0168 31.347C4.00123 31.4794 4.01816 31.6137 4.06612 31.7381L5.06268 34.3191H3.62549C2.87957 34.3191 2.1642 34.6154 1.63676 35.1428C1.10931 35.6703 0.812994 36.3856 0.812994 37.1316V37.2534C0.81217 37.6577 0.899512 38.0573 1.06893 38.4244C1.2904 38.9091 1.64503 39.3209 2.09151 39.6119C2.53798 39.9028 3.05794 40.0609 3.59081 40.0678H7.27143L7.74018 41.2988H11.8483L15.5271 31.7363C15.5743 31.6122 15.5908 31.4785 15.5751 31.3467C15.5594 31.2149 15.5121 31.0888 15.4371 30.9793C15.3621 30.8697 15.2617 30.78 15.1445 30.7177C15.0272 30.6554 14.8967 30.6224 14.7639 30.6216ZM3.57393 38.4263C3.27421 38.41 2.9921 38.2796 2.7855 38.0618C2.57891 37.8441 2.46351 37.5555 2.46299 37.2553V37.1334C2.46349 36.823 2.58702 36.5255 2.8065 36.306C3.02599 36.0865 3.32353 35.963 3.63393 35.9625H5.69081L6.63768 38.4263H3.57393Z" fill="#2D5151"/>
<path d="M14.3168 42.945H5.2793V44.5884H14.3168V42.945Z" fill="#2D5151"/>
<path d="M10.3129 27.6863C10.3291 26.5262 10.6582 25.3921 11.2654 24.4035C11.8727 23.415 12.7355 22.6086 13.7629 22.0697L13.0757 20.5772C12.9013 20.6578 8.79506 22.5956 8.66943 27.6553V28.6706H10.3129V27.6863Z" fill="#2D5151"/>
</svg>
